<svg width="79" height="55" viewBox="0 0 79 55" fill="none" xmlns="http://www.w3.org/2000/svg">
<path d="M25.5936 25.0894C24.0634 24.4263 22.6989 23.6235 21.5 22.6811V12.4527C21.6444 12.7865 21.8149 13.0985 22.0116 13.3888C22.7792 14.4512 23.7315 15.262 24.8687 15.8212C26.0058 16.3803 27.2566 16.8416 28.6212 17.2051C30.0141 17.5406 31.2934 17.8761 32.459 18.2116C33.6245 18.5471 34.5769 19.0224 35.316 19.6375C36.0835 20.2246 36.4673 21.0354 36.4673 22.0699C36.4673 22.7968 36.2825 23.4259 35.913 23.9571C35.5718 24.4604 35.117 24.8797 34.5484 25.2152C34.0083 25.5228 33.3971 25.7604 32.7148 25.9282C32.0325 26.068 31.3787 26.1379 30.7533 26.1379C29.0192 26.1379 27.2993 25.7884 25.5936 25.0894Z" fill="white"/>
<path d="M30.1957 30.8975H50.6297L50.6331 30.8882H47.3234L37.9988 6.95812C37.4383 6.65626 36.8568 6.38139 36.2541 6.13353C34.6906 5.49048 33.0702 5.16896 31.3929 5.16896C30.8243 5.16896 30.2274 5.23886 29.6019 5.37865C28.9765 5.51844 28.3937 5.74211 27.8536 6.04965C27.3419 6.3572 26.9155 6.74862 26.5744 7.22391C26.2332 7.67125 26.0626 8.20246 26.0626 8.81755C26.0626 9.7961 26.4322 10.5929 27.1713 11.208C27.9389 11.8231 28.9055 12.3124 30.071 12.6758C31.265 13.0113 32.53 13.3608 33.8662 13.7243C35.2307 14.0877 36.4958 14.563 37.6613 15.1502C38.8269 15.7373 39.7792 16.576 40.5183 17.6664C41.2859 18.7289 41.6697 20.0988 41.6697 21.7763C41.6697 23.2581 41.357 24.5722 40.7315 25.7185C40.1345 26.8368 39.3243 27.7874 38.3009 28.5703C37.306 29.3251 36.1546 29.8983 34.8469 30.2897C33.5392 30.6811 32.2031 30.8768 30.8386 30.8768C30.6071 30.8768 30.3759 30.873 30.145 30.8653C30.1622 30.8761 30.1791 30.8868 30.1957 30.8975Z" fill="white"/>
<path d="M57.5 0.897461V1.23898L49.396 22.7802L41.1204 0.897461H57.5Z" fill="white"/>
<path d="M0.756 49.0075C1.148 49.3621 1.596 49.6515 2.1 49.8755C2.61333 50.0995 3.14533 50.2115 3.696 50.2115C3.98533 50.2115 4.27 50.1741 4.55 50.0995C4.83 50.0248 5.07733 49.9081 5.292 49.7495C5.50667 49.5908 5.67933 49.3948 5.81 49.1615C5.95 48.9188 6.02 48.6341 6.02 48.3075C6.02 47.9995 5.95467 47.7381 5.824 47.5235C5.70267 47.3088 5.53933 47.1315 5.334 46.9915C5.12867 46.8421 4.886 46.7161 4.606 46.6135C4.33533 46.5108 4.05533 46.4175 3.766 46.3335C3.41133 46.2308 3.05667 46.1188 2.702 45.9975C2.34733 45.8668 2.02533 45.7035 1.736 45.5075C1.456 45.3021 1.22733 45.0455 1.05 44.7375C0.872667 44.4201 0.784 44.0235 0.784 43.5475C0.784 43.1275 0.863333 42.7588 1.022 42.4415C1.19 42.1148 1.40933 41.8395 1.68 41.6155C1.96 41.3915 2.27733 41.2235 2.632 41.1115C2.98667 40.9901 3.36 40.9295 3.752 40.9295C4.284 40.9295 4.77867 41.0135 5.236 41.1815C5.70267 41.3401 6.13667 41.5735 6.538 41.8815V42.9035C6.16467 42.5581 5.74467 42.2828 5.278 42.0775C4.82067 41.8628 4.31667 41.7555 3.766 41.7555C3.514 41.7555 3.262 41.7975 3.01 41.8815C2.758 41.9561 2.52933 42.0681 2.324 42.2175C2.128 42.3575 1.96467 42.5395 1.834 42.7635C1.71267 42.9781 1.652 43.2255 1.652 43.5055C1.652 43.8321 1.71733 44.1075 1.848 44.3315C1.988 44.5461 2.17 44.7281 2.394 44.8775C2.62733 45.0268 2.88867 45.1575 3.178 45.2695C3.46733 45.3721 3.766 45.4701 4.074 45.5635C4.41 45.6755 4.746 45.7968 5.082 45.9275C5.418 46.0488 5.71667 46.2121 5.978 46.4175C6.24867 46.6135 6.468 46.8608 6.636 47.1595C6.804 47.4581 6.888 47.8315 6.888 48.2795C6.888 48.7275 6.79933 49.1241 6.622 49.4695C6.44467 49.8148 6.20667 50.1041 5.908 50.3375C5.61867 50.5708 5.28267 50.7481 4.9 50.8695C4.51733 50.9908 4.116 51.0515 3.696 51.0515C3.164 51.0515 2.64133 50.9675 2.128 50.7995C1.624 50.6221 1.16667 50.3748 0.756 50.0575V49.0075ZM9.15917 41.0975H10.0272V45.3955H15.8932V41.0975H16.7612V50.8975H15.8932V46.2215H10.0272V50.8975H9.15917V41.0975ZM23.489 41.0975L27.563 50.8975H26.653L25.351 47.7615H20.913L19.611 50.8975H18.715L22.803 41.0975H23.489ZM21.221 46.9775H25.043L23.125 42.3295L21.221 46.9775ZM30.3906 50.8975H29.5226V41.0975H32.1406C32.5979 41.0975 33.0133 41.1581 33.3866 41.2795C33.7693 41.4008 34.0959 41.5781 34.3666 41.8115C34.6373 42.0355 34.8473 42.3155 34.9966 42.6515C35.1553 42.9875 35.2346 43.3701 35.2346 43.7995C35.2346 44.1915 35.1693 44.5461 35.0386 44.8635C34.9079 45.1715 34.7259 45.4421 34.4926 45.6755C34.2593 45.9088 33.9793 46.1001 33.6526 46.2495C33.3353 46.3895 32.9806 46.4781 32.5886 46.5155L35.8226 50.8975H34.7866L31.5946 46.5295H30.3906V50.8975ZM30.3906 45.7315H32.1266C32.7893 45.7315 33.3259 45.5635 33.7366 45.2275C34.1473 44.8821 34.3526 44.4061 34.3526 43.7995C34.3526 43.1928 34.1473 42.7261 33.7366 42.3995C33.3259 42.0728 32.7893 41.9095 32.1266 41.9095H30.3906V45.7315ZM37.9407 41.0975H43.1767V41.8955H38.8087V45.3955H42.8407V46.1935H38.8087V50.0995H43.2047V50.8975H37.9407V41.0975ZM48.5702 50.8975L44.7622 41.0975H45.6722L48.8782 49.4835L52.0982 41.0975H52.9802L49.1722 50.8975H48.5702ZM57.5167 41.0975L61.5907 50.8975H60.6807L59.3787 47.7615H54.9407L53.6387 50.8975H52.7427L56.8307 41.0975H57.5167ZM55.2487 46.9775H59.0707L57.1527 42.3295L55.2487 46.9775ZM64.4183 50.8975H63.5503V41.0975H66.1683C66.6256 41.0975 67.0409 41.1581 67.4143 41.2795C67.7969 41.4008 68.1236 41.5781 68.3943 41.8115C68.6649 42.0355 68.8749 42.3155 69.0243 42.6515C69.1829 42.9875 69.2623 43.3701 69.2623 43.7995C69.2623 44.1915 69.1969 44.5461 69.0663 44.8635C68.9356 45.1715 68.7536 45.4421 68.5203 45.6755C68.2869 45.9088 68.0069 46.1001 67.6803 46.2495C67.3629 46.3895 67.0083 46.4781 66.6163 46.5155L69.8503 50.8975H68.8143L65.6223 46.5295H64.4183V50.8975ZM64.4183 45.7315H66.1543C66.8169 45.7315 67.3536 45.5635 67.7643 45.2275C68.1749 44.8821 68.3803 44.4061 68.3803 43.7995C68.3803 43.1928 68.1749 42.7261 67.7643 42.3995C67.3536 42.0728 66.8169 41.9095 66.1543 41.9095H64.4183V45.7315ZM70.4945 41.0975H71.5025L74.5825 45.6755L77.6485 41.0975H78.6425L75.0025 46.4735V50.8975H74.1345V46.4735L70.4945 41.0975Z" fill="white"/>
</svg>
